<svg width="25" height="31" viewBox="0 0 25 31" fill="none" xmlns="http://www.w3.org/2000/svg">
<path fill-rule="evenodd" clip-rule="evenodd" d="M12.9747 27.1558C12.7612 27.3125 12.5622 27.4547 12.3803 27.5822C12.1863 27.4535 11.9712 27.3055 11.7378 27.1387C10.6377 26.3515 9.21083 25.196 7.80563 23.7548C4.92337 20.7987 2.5 17.0252 2.5 13C2.5 7.47715 6.97715 3 12.5 3C18.0228 3 22.5 7.47715 22.5 13C22.5 16.982 19.9698 20.7447 16.9822 23.7322C15.5327 25.1818 14.074 26.3498 12.9747 27.1558ZM25 13C25 23 12.5 30.5 12.5 30.5C11.875 30.5 0 23 0 13C0 6.09643 5.59643 0.5 12.5 0.5C19.4035 0.5 25 6.09643 25 13ZM15 13C15 14.3807 13.8807 15.5 12.5 15.5C11.1193 15.5 10 14.3807 10 13C10 11.6193 11.1193 10.5 12.5 10.5C13.8807 10.5 15 11.6193 15 13ZM17.5 13C17.5 15.7615 15.2615 18 12.5 18C9.7385 18 7.5 15.7615 7.5 13C7.5 10.2386 9.7385 8 12.5 8C15.2615 8 17.5 10.2386 17.5 13Z" fill="#F6FAF4"/>
</svg>
