<svg width="527" height="873" viewBox="0 0 527 873" fill="none" xmlns="http://www.w3.org/2000/svg">
<path d="M299.305 138.984C134.267 215.621 61.9026 411.277 137.978 575.106C214.081 738.994 410.253 809.955 575.289 733.319C740.324 656.683 812.69 461.025 736.587 297.137C660.512 133.308 464.341 62.3488 299.305 138.984ZM179.88 555.649C114.51 414.874 176.787 246.7 318.719 180.793C320.754 179.848 322.758 178.991 324.761 178.132C387.805 152.488 459.388 177.985 486.789 236.994C500.85 267.275 500.792 302.879 486.535 334.547C482.806 342.813 477.533 351.361 470.322 360.59L369.609 489.4C332.426 538.612 324.88 602.596 349.869 656.409C361.017 680.419 377.514 700.276 397.488 715.396C305.446 702.885 221.62 645.536 179.88 555.649ZM555.875 691.511L555.542 690.794C492.568 720.037 419.144 695.902 391.771 636.952C373.965 598.608 379.556 552.667 406.257 517.396L506.695 388.932C516.238 376.732 523.406 365.055 528.682 353.383C548.38 309.459 548.382 259.942 528.691 217.536C517.347 193.108 500.569 172.802 480.28 157.32C571.083 170.77 653.444 227.784 694.684 316.595C760.081 457.429 697.805 625.604 555.875 691.511Z" fill="white" fill-opacity="0.05"/>
<path d="M395.117 337.394C365.69 351.059 330.652 338.288 317.015 308.921C303.378 279.554 316.229 244.545 345.657 230.88C375.09 217.212 410.128 229.984 423.765 259.351C437.402 288.718 424.551 323.727 395.117 337.394ZM365.07 272.687C358.745 275.624 355.987 283.152 358.916 289.462C361.846 295.771 369.378 298.521 375.703 295.584C382.029 292.647 384.792 285.116 381.862 278.807C378.932 272.497 371.396 269.749 365.07 272.687Z" fill="white" fill-opacity="0.05"/>
<path d="M528.668 632.937C499.24 646.602 464.202 633.83 450.566 604.463C436.929 575.096 449.78 540.087 479.207 526.422C508.64 512.755 543.678 525.526 557.315 554.893C570.951 584.259 558.101 619.269 528.668 632.937ZM498.62 568.229C492.296 571.166 489.536 578.693 492.467 585.004C495.397 591.315 502.928 594.064 509.253 591.127C515.579 588.189 518.343 580.659 515.413 574.349C512.482 568.038 504.945 565.292 498.62 568.229Z" fill="white" fill-opacity="0.05"/>
</svg>
