<svg width="660" height="226" viewBox="0 0 660 226" fill="none" xmlns="http://www.w3.org/2000/svg">
<path d="M330 655.287C511.963 655.287 660 508.307 660 327.677C660 146.981 511.961 -7.39771e-05 330 -8.98847e-05C148.039 -0.000105792 4.44375e-05 146.981 2.86406e-05 327.676C1.28494e-05 508.307 148.039 655.287 330 655.287ZM613.801 327.677C613.801 482.888 486.487 609.191 330 609.191C327.757 609.191 325.578 609.124 323.399 609.059C255.418 605.766 201.233 552.492 201.233 487.432C201.233 454.045 216.281 421.778 242.549 399.06C249.413 393.133 257.795 387.601 268.223 382.268L413.818 307.856C468.268 278.881 502.061 224.027 502.061 164.695C502.061 138.223 495.462 113.265 483.713 91.1393C561.926 141.252 613.801 228.571 613.801 327.677ZM330 46.0959L330 46.8859C399.433 46.8859 455.862 99.6992 455.862 164.695C455.862 206.971 431.442 246.285 392.369 267.028L247.17 341.242C233.376 348.289 221.957 355.861 212.256 364.225C175.891 395.767 155.034 440.677 155.034 487.432C155.034 514.366 161.7 539.849 173.581 562.436C96.8887 511.994 46.2009 425.596 46.2009 327.676C46.2009 172.4 173.514 46.0959 330 46.0959Z" fill="#162311" fill-opacity="0.05"/>
<path d="M330.007 110.68C362.452 110.68 388.852 137.02 388.852 169.399C388.852 201.778 362.452 228.118 330.007 228.118C297.555 228.118 271.155 201.778 271.155 169.399C271.155 137.022 297.555 110.68 330.007 110.68ZM330.007 182.024C336.98 182.024 342.653 176.359 342.653 169.401C342.653 162.442 336.98 156.778 330.007 156.778C323.032 156.778 317.354 162.444 317.354 169.401C317.354 176.359 323.033 182.024 330.007 182.024Z" fill="#162311" fill-opacity="0.05"/>
</svg>
