<svg width="28" height="28" viewBox="0 0 28 28" fill="none" xmlns="http://www.w3.org/2000/svg">
<path d="M13.66 0C6.12784 0 0 6.08406 0 13.5611C0 21.0408 6.12791 27.1249 13.66 27.1249C21.1921 27.1249 27.32 21.0408 27.32 13.5611C27.32 6.08406 21.1921 0 13.66 0ZM1.91237 13.5611C1.91237 7.13624 7.18237 1.9081 13.66 1.9081C13.7529 1.9081 13.843 1.91085 13.9332 1.91354C16.7472 2.04984 18.9902 4.25506 18.9902 6.94817C18.9902 8.33017 18.3673 9.66585 17.2799 10.6062C16.9958 10.8516 16.6488 11.0806 16.2172 11.3013L10.1904 14.3815C7.93653 15.5809 6.53773 17.8515 6.53773 20.3075C6.53773 21.4033 6.8109 22.4364 7.2972 23.3523C4.05969 21.2779 1.91237 17.6634 1.91237 13.5611ZM13.66 25.2168V25.1841C10.7859 25.1841 8.4501 22.9979 8.4501 20.3075C8.4501 18.5576 9.46091 16.9302 11.0783 16.0715L17.0887 12.9995C17.6597 12.7078 18.1323 12.3944 18.5339 12.0482C20.0392 10.7425 20.9025 8.88352 20.9025 6.94817C20.9025 5.83327 20.6266 4.7784 20.1348 3.84346C23.3094 5.93144 25.4076 9.50779 25.4076 13.5611C25.4076 19.9886 20.1376 25.2168 13.66 25.2168Z" fill="#F6FAF4"/>
<path d="M13.7981 9.11943C12.4551 9.11943 11.3623 8.02911 11.3623 6.68882C11.3623 5.34853 12.4551 4.25821 13.7981 4.25821C15.1415 4.25821 16.2343 5.34853 16.2343 6.68882C16.2343 8.02911 15.1415 9.11943 13.7981 9.11943ZM13.7981 6.16624C13.5095 6.16624 13.2747 6.40078 13.2747 6.68875C13.2747 6.97672 13.5095 7.21126 13.7981 7.21126C14.0869 7.21126 14.3219 6.97672 14.3219 6.68875C14.3219 6.40078 14.0869 6.16624 13.7981 6.16624Z" fill="#F6FAF4"/>
<path d="M13.6597 22.5434C12.3167 22.5434 11.2239 21.4531 11.2239 20.1128C11.2239 18.7725 12.3167 17.6822 13.6597 17.6822C15.003 17.6822 16.0958 18.7725 16.0958 20.1128C16.0958 21.453 15.003 22.5434 13.6597 22.5434ZM13.6597 19.5902C13.3711 19.5902 13.1362 19.8247 13.1362 20.1127C13.1362 20.4008 13.3711 20.6352 13.6597 20.6352C13.9484 20.6352 14.1835 20.4007 14.1835 20.1127C14.1835 19.8247 13.9484 19.5902 13.6597 19.5902Z" fill="#F6FAF4"/>
</svg>
